<svg xmlns="http://www.w3.org/2000/svg" viewBox="0 0 30.27 20.71"><defs><style>.cls-1{fill:#fff;}</style></defs><g id="Layer_2" data-name="Layer 2"><g id="Layer_1-2" data-name="Layer 1"><path class="cls-1" d="M14.23,20.71c-1.43-3.58-2.81-7-4.25-10.61-1.44,3.57-2.82,7-4.27,10.59C3.78,15.88,1.9,11.17,0,6.42H20c-1.91,4.76-3.8,9.45-5.74,14.29M7.59,9.05H3.94c.6,1.49,1.16,2.91,1.78,4.46L7.53,9.05m4.92,0c.6,1.52,1.16,2.94,1.78,4.49.63-1.58,1.2-3,1.8-4.49Z"/><path class="cls-1" d="M18.88,20c1.88-4.73,3.75-9.41,5.68-14.25L30.27,20Zm5.68-7.11-1.77,4.47h3.57c-.6-1.48-1.17-2.92-1.8-4.47"/><path class="cls-1" d="M8.12,1.85a1.87,1.87,0,1,1,3.73,0,1.87,1.87,0,1,1-3.73,0"/></g></g></svg>