<svg xmlns="http://www.w3.org/2000/svg" xmlns:xlink="http://www.w3.org/1999/xlink" viewBox="0 0 230.13 62.21"><defs><style>.cls-1,.cls-4{fill:none;}.cls-2{clip-path:url(#clip-path);}.cls-3{fill:#fff;}.cls-4{stroke:#fff;stroke-miterlimit:10;}</style><clipPath id="clip-path" transform="translate(-5.36 -6.21)"><polygon class="cls-1" points="0 0 241 0 241 75 0 77 0 0"/></clipPath></defs><g id="Layer_2" data-name="Layer 2"><g id="Layer_1-2" data-name="Layer 1"><g class="cls-2"><g class="cls-2"><path class="cls-3" d="M56.92,14c-5,12.36-9.92,24.57-14.91,37C38.34,41.73,34.75,32.7,31.1,23.56l-11,27.31C15.13,38.48,10.25,26.24,5.36,14ZM15.56,20.54c1.51,3.8,3,7.57,4.53,11.45,1.6-3.88,3.14-7.64,4.7-11.45Zm31.3,0H37.51C39,24.35,40.5,28.11,42,32l4.61-11.46" transform="translate(-5.36 -6.21)"/><path class="cls-3" d="M101.26,30.19V35c0,4.76,0,9.51,0,14.27a.7.7,0,0,1-.72.71c-1.85,0-3.7,0-5.55,0h-.31v-36a2.71,2.71,0,0,1,.85,0,11.06,11.06,0,0,0,4.4.13c1.15-.22,1.5-.27,1.77.29q5.82,11.89,11.67,23.79c.35.72.72,1.44,1.13,2.25l1.87-3.93q5.22-11,10.44-22.06c.08-.18.3-.41.46-.41,2.13,0,4.26,0,6.45,0v36h-7V30.45l-.1,0-1.32,2.79q-3.78,8.07-7.55,16.16c-.21.46-.44.62-1.11.52a16.25,16.25,0,0,0-4.46,0c-.64.09-.87,0-1.09-.44q-4.63-9.61-9.31-19.23c0-.09-.09-.17-.14-.26l-.09,0" transform="translate(-5.36 -6.21)"/><path class="cls-3" d="M185.92,14.4h.69c3.61,0,7.22,0,10.83,0a14.41,14.41,0,0,1,7,1.84c3.45,1.95,4.91,5.06,4.84,9a9.13,9.13,0,0,1-2.87,6.88,23.74,23.74,0,0,1-2.84,2,4.63,4.63,0,0,1-.63.31c2.32,5.19,4.62,10.34,7,15.56h-4.37c-.79,0-1.58,0-2.37,0a.63.63,0,0,1-.67-.46c-2-4.46-4-8.91-5.94-13.38a.86.86,0,0,0-1-.64c-1,0-2,0-3.12,0V49.93h-6.58Zm7,6.57v7.8l.31,0c1.7,0,3.4,0,5.1,0a6.76,6.76,0,0,0,3.42-.93,3.29,3.29,0,0,0,0-5.76,6.06,6.06,0,0,0-1.54-.62c-2.38-.61-4.8-.17-7.26-.35" transform="translate(-5.36 -6.21)"/><path class="cls-3" d="M150.09,49.93l14.74-36.81c4.92,12.34,9.79,24.54,14.69,36.81ZM164.8,31.3c-1.57,4-3.09,7.77-4.62,11.61h9.26c-1.54-3.87-3.06-7.67-4.64-11.61" transform="translate(-5.36 -6.21)"/><path class="cls-3" d="M73.91,13.84A13.52,13.52,0,1,1,60.42,27.42,13.65,13.65,0,0,1,73.91,13.84m0,20.16a6.66,6.66,0,1,0-6.64-6.63A6.69,6.69,0,0,0,73.92,34" transform="translate(-5.36 -6.21)"/><polygon class="cls-3" points="224.43 43.71 217.41 43.71 217.41 14.76 211.71 14.76 211.71 7.74 230.13 7.74 230.13 14.76 224.43 14.76 224.43 43.71"/><path class="cls-3" d="M61.78,49.49V42.91H85.89a4.28,4.28,0,0,1,0,.46c0,1.94,0,3.87,0,5.8,0,.43-.09.61-.58.61l-23.3-.1-.28,0" transform="translate(-5.36 -6.21)"/><path class="cls-3" d="M184.31,65.75c.83-1.79,1.65-3.45,2.38-5.14.27-.61.6-.87,1.25-.77a4,4,0,0,0,.61,0v8.06h-1.76V63.8l-.13,0c-.4.84-.81,1.69-1.21,2.54a6,6,0,0,0-.41.89c-.19.66-.59.83-1.28.76a.87.87,0,0,1-.71-.5c-.61-1.27-1.24-2.53-2-3.77v4.22h-1.32V59.85a7,7,0,0,1,1.21,0,.83.83,0,0,1,.49.45c.88,1.76,1.74,3.53,2.67,5.43" transform="translate(-5.36 -6.21)"/><path class="cls-3" d="M140.61,9.63a3.37,3.37,0,1,1,6.74-.05,3.37,3.37,0,1,1-6.74.05" transform="translate(-5.36 -6.21)"/><path class="cls-3" d="M86.78,60a24.59,24.59,0,0,1,3.44,0,2.18,2.18,0,0,1,1.85,3,4.71,4.71,0,0,1-.57,1A2.08,2.08,0,0,1,92.13,66a2.13,2.13,0,0,1-2,1.77c-1.11.11-2.23,0-3.38,0Zm1.32,1.32v1.81A8.73,8.73,0,0,0,89.69,63a.89.89,0,0,0,.55-.67.88.88,0,0,0-.53-.68,9.24,9.24,0,0,0-1.61-.17m0,4.89a7.81,7.81,0,0,0,1.56-.14,1.06,1.06,0,0,0,.6-.7c.09-.43-.28-.68-.66-.73a12.48,12.48,0,0,0-1.5,0Z" transform="translate(-5.36 -6.21)"/><path class="cls-3" d="M28,64.4V63.09h3v4.56a.29.29,0,0,1-.09.2,1.88,1.88,0,0,1-1.59-.27A4,4,0,0,1,24,65.51a4,4,0,0,1,6.6-4.37l-1.16,1c-.12-.07-.3-.21-.49-.32a2.45,2.45,0,0,0-3.2,3.63,2.54,2.54,0,0,0,3.06.56c.57-.29.77-.7.58-1.6Z" transform="translate(-5.36 -6.21)"/><path class="cls-3" d="M99.94,64.84H96.43V66.6h3.51v1.31H94.68V60h5.39s.05,0,.05,0c.14,1.46.14,1.46-1.3,1.73H96.43V63.1c.92,0,1.84,0,2.76,0,1.1,0,1-.25,1,1,0,.15,0,.3,0,.54" transform="translate(-5.36 -6.21)"/><path class="cls-3" d="M41.6,59.94c1.9,0,3.76,0,5.61,0,.12,0,.23.2.34.31s0,.08,0,.12c.06,1.42.05,1.09-2.33,1.18-.4,0-.81,0-1.21,0s-.74.11-.7.56,0,.64,0,1c1.25,0,2.45,0,3.65,0a.55.55,0,0,1,.58.59c-.06,1.13.21,1-1.17,1-1,0-2,0-3,0v1.41H47.3v1.75H41.6Z" transform="translate(-5.36 -6.21)"/><path class="cls-3" d="M35.46,64.84v3.07H33.7v-8c1.29.09,2.59-.17,3.84.27a2.16,2.16,0,0,1,1.57,2A2.13,2.13,0,0,1,38,64.28a2.52,2.52,0,0,0-.27.18c.51,1.12,1,2.24,1.58,3.45-.59,0-1.07,0-1.55,0-.13,0-.29-.21-.36-.36-.36-.75-.73-1.5-1-2.27a.71.71,0,0,0-1.07-.47m.2-3.47v1.73a11.42,11.42,0,0,0,1.44,0c.4-.06.79-.24.79-.76s-.38-.74-.83-.79a12.77,12.77,0,0,0-1.4,0" transform="translate(-5.36 -6.21)"/><polygon class="cls-3" points="134.94 53.8 140.2 53.8 140.2 55.12 136.26 55.12 136.26 56.87 140.2 56.87 140.2 58.19 136.26 58.19 136.26 59.94 140.2 59.94 140.2 61.7 134.94 61.7 134.94 53.8"/><path class="cls-3" d="M157.4,60a24.6,24.6,0,0,1,3.22,0,2.26,2.26,0,0,1,1.73,3.56,6.52,6.52,0,0,1-1,.92l1.54,3.37a7.13,7.13,0,0,1-1.24,0,.85.85,0,0,1-.58-.39,17.58,17.58,0,0,1-1-2.25c-.22-.58-.56-.66-1.3-.5v3.2H157.4Zm1.32,3.11a14.31,14.31,0,0,0,1.47,0,.8.8,0,0,0,.83-.8c0-.51-.39-.75-.84-.79a14.18,14.18,0,0,0-1.46,0Z" transform="translate(-5.36 -6.21)"/><polygon class="cls-3" points="130.55 53.8 131.87 53.8 131.87 61.7 130.55 61.7 130.55 58.63 127.48 58.63 127.48 61.7 125.73 61.7 125.73 53.8 127.48 53.8 127.48 56.87 130.55 56.87 130.55 53.8"/><polygon class="cls-3" points="205.13 56.87 209.07 56.87 209.07 58.19 205.13 58.19 205.13 60.38 209.07 60.38 209.07 61.7 203.81 61.7 203.81 53.8 209.07 53.8 209.07 55.12 205.13 55.12 205.13 56.87"/><path class="cls-3" d="M200.39,67.91V60a6.74,6.74,0,0,1,4.3.78,3.48,3.48,0,0,1,1.64,3.41,3.42,3.42,0,0,1-2.08,3.1,7.5,7.5,0,0,1-3.86.55m1.32-6.51v5c1.82-.08,2.95-1,2.94-2.43s-1.27-2.32-2.94-2.4" transform="translate(-5.36 -6.21)"/><path class="cls-3" d="M102.81,65.37a11.16,11.16,0,0,1,1.17,0,.66.66,0,0,1,.45.31,1,1,0,0,0,1.33.51,1,1,0,0,0,.51-.72c0-.22-.27-.53-.5-.67a2.79,2.79,0,0,0-.85-.16,2.31,2.31,0,0,1-2.11-2.57,2.57,2.57,0,0,1,5.09.18s0,.07-.08.18c-.38,0-.8,0-1.22,0-.12,0-.27-.18-.32-.31a.92.92,0,0,0-1.06-.61.79.79,0,1,0,0,1.58c.21,0,.43,0,.63.06a2.33,2.33,0,0,1,2.08,1.9,2.38,2.38,0,0,1-1,2.42,2.76,2.76,0,0,1-3,0,2.37,2.37,0,0,1-1.11-2.11" transform="translate(-5.36 -6.21)"/><path class="cls-3" d="M56.51,67.91H49.79c1.1-2.76,2.17-5.46,3.32-8.32,1.14,2.85,2.22,5.55,3.34,8.32m-2.38-1.75c-.32-.83-.62-1.58-1-2.43-.34.87-.64,1.63-1,2.43Z" transform="translate(-5.36 -6.21)"/><path class="cls-3" d="M73.18,60H79.9c-1.1,2.74-2.17,5.43-3.24,8.12H76.5c-1.07-2.69-2.15-5.37-3.25-8.12m2.37,1.31,1,2.43,1-2.43Z" transform="translate(-5.36 -6.21)"/><path class="cls-3" d="M151.41,59.71l3.29,8.2h-6.56c1.08-2.69,2.14-5.37,3.27-8.2m1,6.45c-.34-.83-.65-1.61-1-2.52-.37.92-.67,1.69-1,2.52Z" transform="translate(-5.36 -6.21)"/><path class="cls-3" d="M197.76,67.91H191.1c1.09-2.72,2.15-5.39,3.27-8.2l3.29,8.2m-4.29-1.75h2c-.34-.85-.66-1.63-1-2.52-.36.91-.67,1.68-1,2.52" transform="translate(-5.36 -6.21)"/><path class="cls-3" d="M116.38,64.84l1.36-3.3.27-.65c.63-1.5.63-1.5,2.43-1.28-.47,1.14-.93,2.27-1.42,3.48h3.81c-.58,1.42-1,2.49-1.57,3.82-.14.32-.26.66-.39,1a.7.7,0,0,1-.84.52c-.37,0-.75,0-1.28,0,.5-1.22,1-2.35,1.48-3.57Z" transform="translate(-5.36 -6.21)"/><path class="cls-3" d="M60.9,61.33H59.14V60h5.27v1.31H62.65v.83c0,1.71,0,3.43,0,5.15,0,.42-.07.63-.57.6-1.59-.06-.8.26-1.14-2.47A11.79,11.79,0,0,1,61,62.19a2.93,2.93,0,0,0,0-.72" transform="translate(-5.36 -6.21)"/><polygon class="cls-3" points="165.21 55.12 163.45 55.12 163.45 61.7 162.14 61.7 162.14 55.12 160.38 55.12 160.38 53.8 165.21 53.8 165.21 55.12"/><rect class="cls-3" x="77.04" y="53.8" width="1.32" height="7.9"/><path class="cls-4" d="M15.56,20.76h9.23c-1.56,3.81-3.1,7.57-4.7,11.45C18.56,28.33,17.07,24.56,15.56,20.76Z" transform="translate(-5.36 -6.21)"/></g></g></g></g></svg>